G04 #@! TF.GenerationSoftware,KiCad,Pcbnew,5.1.5+dfsg1-2build2*
G04 #@! TF.CreationDate,2021-03-07T11:34:37+01:00*
G04 #@! TF.ProjectId,miteThru,6d697465-5468-4727-952e-6b696361645f,rev?*
G04 #@! TF.SameCoordinates,Original*
G04 #@! TF.FileFunction,Copper,L1,Top*
G04 #@! TF.FilePolarity,Positive*
%FSLAX46Y46*%
G04 Gerber Fmt 4.6, Leading zero omitted, Abs format (unit mm)*
G04 Created by KiCad (PCBNEW 5.1.5+dfsg1-2build2) date 2021-03-07 11:34:37*
%MOMM*%
%LPD*%
G04 APERTURE LIST*
%ADD10R,3.960000X1.980000*%
%ADD11O,3.960000X1.980000*%
%ADD12O,2.000000X1.905000*%
%ADD13R,2.000000X1.905000*%
%ADD14C,1.600000*%
%ADD15R,1.800000X1.800000*%
%ADD16C,1.800000*%
%ADD17O,1.600000X1.600000*%
%ADD18C,2.500000*%
%ADD19C,2.000000*%
%ADD20C,4.000000*%
%ADD21C,0.800000*%
%ADD22C,1.000000*%
G04 APERTURE END LIST*
D10*
X224790000Y-78740000D03*
D11*
X224790000Y-73740000D03*
D12*
X210820000Y-81280000D03*
X210820000Y-78740000D03*
D13*
X210820000Y-76200000D03*
D14*
X205740000Y-76280000D03*
X205740000Y-81280000D03*
X210820000Y-71120000D03*
X205820000Y-71120000D03*
D15*
X221000000Y-86360000D03*
D16*
X221000000Y-83820000D03*
X204470000Y-113030000D03*
D15*
X207010000Y-113030000D03*
X207010000Y-100330000D03*
D16*
X204470000Y-100330000D03*
D11*
X224790000Y-62310000D03*
D10*
X224790000Y-67310000D03*
D13*
X212090000Y-64770000D03*
D12*
X212090000Y-62230000D03*
X212090000Y-59690000D03*
D14*
X207010000Y-66040000D03*
D17*
X207010000Y-58420000D03*
X217170000Y-90170000D03*
D14*
X209550000Y-90170000D03*
X205740000Y-86360000D03*
D17*
X213360000Y-86360000D03*
D14*
X212090000Y-106680000D03*
D17*
X204470000Y-106680000D03*
X209550000Y-93980000D03*
D14*
X217170000Y-93980000D03*
D18*
X226790000Y-107950000D03*
X226790000Y-111760000D03*
X226790000Y-115570000D03*
X226790000Y-90170000D03*
X226790000Y-86360000D03*
X226790000Y-104140000D03*
X226790000Y-97790000D03*
X226790000Y-93980000D03*
D19*
X210820000Y-114990000D03*
X210820000Y-110490000D03*
X217320000Y-114990000D03*
X217320000Y-110490000D03*
X217170000Y-97790000D03*
X217170000Y-102290000D03*
X210670000Y-97790000D03*
X210670000Y-102290000D03*
X210820000Y-124500000D03*
X210820000Y-120000000D03*
X217320000Y-124500000D03*
X217320000Y-120000000D03*
D20*
X201000000Y-54000000D03*
X225000000Y-54000000D03*
X225000000Y-126000000D03*
X201000000Y-126000000D03*
D21*
X208280000Y-71120000D03*
X205740000Y-78740000D03*
X220980000Y-97790000D03*
X220980000Y-114300000D03*
D22*
X220980000Y-114300000D02*
X220980000Y-97790000D01*
M02*
