G04 #@! TF.GenerationSoftware,KiCad,Pcbnew,5.1.5+dfsg1-2build2*
G04 #@! TF.CreationDate,2021-03-07T11:34:37+01:00*
G04 #@! TF.ProjectId,miteThru,6d697465-5468-4727-952e-6b696361645f,rev?*
G04 #@! TF.SameCoordinates,Original*
G04 #@! TF.FileFunction,Copper,L2,Bot*
G04 #@! TF.FilePolarity,Positive*
%FSLAX46Y46*%
G04 Gerber Fmt 4.6, Leading zero omitted, Abs format (unit mm)*
G04 Created by KiCad (PCBNEW 5.1.5+dfsg1-2build2) date 2021-03-07 11:34:37*
%MOMM*%
%LPD*%
G04 APERTURE LIST*
%ADD10C,0.200000*%
%ADD11R,3.960000X1.980000*%
%ADD12O,3.960000X1.980000*%
%ADD13O,2.000000X1.905000*%
%ADD14R,2.000000X1.905000*%
%ADD15C,1.600000*%
%ADD16R,1.800000X1.800000*%
%ADD17C,1.800000*%
%ADD18O,1.600000X1.600000*%
%ADD19C,2.500000*%
%ADD20C,2.000000*%
%ADD21C,4.000000*%
%ADD22C,0.800000*%
%ADD23C,1.000000*%
G04 APERTURE END LIST*
D10*
X230565476Y-114482142D02*
X229315476Y-114482142D01*
X229315476Y-114958333D01*
X229375000Y-115077380D01*
X229434523Y-115136904D01*
X229553571Y-115196428D01*
X229732142Y-115196428D01*
X229851190Y-115136904D01*
X229910714Y-115077380D01*
X229970238Y-114958333D01*
X229970238Y-114482142D01*
X229732142Y-116267857D02*
X230565476Y-116267857D01*
X229255952Y-115970238D02*
X230148809Y-115672619D01*
X230148809Y-116446428D01*
X229315476Y-117160714D02*
X229315476Y-117279761D01*
X229375000Y-117398809D01*
X229434523Y-117458333D01*
X229553571Y-117517857D01*
X229791666Y-117577380D01*
X230089285Y-117577380D01*
X230327380Y-117517857D01*
X230446428Y-117458333D01*
X230505952Y-117398809D01*
X230565476Y-117279761D01*
X230565476Y-117160714D01*
X230505952Y-117041666D01*
X230446428Y-116982142D01*
X230327380Y-116922619D01*
X230089285Y-116863095D01*
X229791666Y-116863095D01*
X229553571Y-116922619D01*
X229434523Y-116982142D01*
X229375000Y-117041666D01*
X229315476Y-117160714D01*
X230565476Y-110482142D02*
X229315476Y-110482142D01*
X229315476Y-110958333D01*
X229375000Y-111077380D01*
X229434523Y-111136904D01*
X229553571Y-111196428D01*
X229732142Y-111196428D01*
X229851190Y-111136904D01*
X229910714Y-111077380D01*
X229970238Y-110958333D01*
X229970238Y-110482142D01*
X229315476Y-111613095D02*
X229315476Y-112386904D01*
X229791666Y-111970238D01*
X229791666Y-112148809D01*
X229851190Y-112267857D01*
X229910714Y-112327380D01*
X230029761Y-112386904D01*
X230327380Y-112386904D01*
X230446428Y-112327380D01*
X230505952Y-112267857D01*
X230565476Y-112148809D01*
X230565476Y-111791666D01*
X230505952Y-111672619D01*
X230446428Y-111613095D01*
X229851190Y-113101190D02*
X229791666Y-112982142D01*
X229732142Y-112922619D01*
X229613095Y-112863095D01*
X229553571Y-112863095D01*
X229434523Y-112922619D01*
X229375000Y-112982142D01*
X229315476Y-113101190D01*
X229315476Y-113339285D01*
X229375000Y-113458333D01*
X229434523Y-113517857D01*
X229553571Y-113577380D01*
X229613095Y-113577380D01*
X229732142Y-113517857D01*
X229791666Y-113458333D01*
X229851190Y-113339285D01*
X229851190Y-113101190D01*
X229910714Y-112982142D01*
X229970238Y-112922619D01*
X230089285Y-112863095D01*
X230327380Y-112863095D01*
X230446428Y-112922619D01*
X230505952Y-112982142D01*
X230565476Y-113101190D01*
X230565476Y-113339285D01*
X230505952Y-113458333D01*
X230446428Y-113517857D01*
X230327380Y-113577380D01*
X230089285Y-113577380D01*
X229970238Y-113517857D01*
X229910714Y-113458333D01*
X229851190Y-113339285D01*
X230565476Y-106482142D02*
X229315476Y-106482142D01*
X229315476Y-106958333D01*
X229375000Y-107077380D01*
X229434523Y-107136904D01*
X229553571Y-107196428D01*
X229732142Y-107196428D01*
X229851190Y-107136904D01*
X229910714Y-107077380D01*
X229970238Y-106958333D01*
X229970238Y-106482142D01*
X229315476Y-107613095D02*
X229315476Y-108386904D01*
X229791666Y-107970238D01*
X229791666Y-108148809D01*
X229851190Y-108267857D01*
X229910714Y-108327380D01*
X230029761Y-108386904D01*
X230327380Y-108386904D01*
X230446428Y-108327380D01*
X230505952Y-108267857D01*
X230565476Y-108148809D01*
X230565476Y-107791666D01*
X230505952Y-107672619D01*
X230446428Y-107613095D01*
X229315476Y-109458333D02*
X229315476Y-109220238D01*
X229375000Y-109101190D01*
X229434523Y-109041666D01*
X229613095Y-108922619D01*
X229851190Y-108863095D01*
X230327380Y-108863095D01*
X230446428Y-108922619D01*
X230505952Y-108982142D01*
X230565476Y-109101190D01*
X230565476Y-109339285D01*
X230505952Y-109458333D01*
X230446428Y-109517857D01*
X230327380Y-109577380D01*
X230029761Y-109577380D01*
X229910714Y-109517857D01*
X229851190Y-109458333D01*
X229791666Y-109339285D01*
X229791666Y-109101190D01*
X229851190Y-108982142D01*
X229910714Y-108922619D01*
X230029761Y-108863095D01*
X230565476Y-102482142D02*
X229315476Y-102482142D01*
X229315476Y-102958333D01*
X229375000Y-103077380D01*
X229434523Y-103136904D01*
X229553571Y-103196428D01*
X229732142Y-103196428D01*
X229851190Y-103136904D01*
X229910714Y-103077380D01*
X229970238Y-102958333D01*
X229970238Y-102482142D01*
X229315476Y-103613095D02*
X229315476Y-104386904D01*
X229791666Y-103970238D01*
X229791666Y-104148809D01*
X229851190Y-104267857D01*
X229910714Y-104327380D01*
X230029761Y-104386904D01*
X230327380Y-104386904D01*
X230446428Y-104327380D01*
X230505952Y-104267857D01*
X230565476Y-104148809D01*
X230565476Y-103791666D01*
X230505952Y-103672619D01*
X230446428Y-103613095D01*
X229732142Y-105458333D02*
X230565476Y-105458333D01*
X229255952Y-105160714D02*
X230148809Y-104863095D01*
X230148809Y-105636904D01*
X230565476Y-96482142D02*
X229315476Y-96482142D01*
X229315476Y-96958333D01*
X229375000Y-97077380D01*
X229434523Y-97136904D01*
X229553571Y-97196428D01*
X229732142Y-97196428D01*
X229851190Y-97136904D01*
X229910714Y-97077380D01*
X229970238Y-96958333D01*
X229970238Y-96482142D01*
X229434523Y-97672619D02*
X229375000Y-97732142D01*
X229315476Y-97851190D01*
X229315476Y-98148809D01*
X229375000Y-98267857D01*
X229434523Y-98327380D01*
X229553571Y-98386904D01*
X229672619Y-98386904D01*
X229851190Y-98327380D01*
X230565476Y-97613095D01*
X230565476Y-98386904D01*
X229315476Y-99458333D02*
X229315476Y-99220238D01*
X229375000Y-99101190D01*
X229434523Y-99041666D01*
X229613095Y-98922619D01*
X229851190Y-98863095D01*
X230327380Y-98863095D01*
X230446428Y-98922619D01*
X230505952Y-98982142D01*
X230565476Y-99101190D01*
X230565476Y-99339285D01*
X230505952Y-99458333D01*
X230446428Y-99517857D01*
X230327380Y-99577380D01*
X230029761Y-99577380D01*
X229910714Y-99517857D01*
X229851190Y-99458333D01*
X229791666Y-99339285D01*
X229791666Y-99101190D01*
X229851190Y-98982142D01*
X229910714Y-98922619D01*
X230029761Y-98863095D01*
X230565476Y-92482142D02*
X229315476Y-92482142D01*
X229315476Y-92958333D01*
X229375000Y-93077380D01*
X229434523Y-93136904D01*
X229553571Y-93196428D01*
X229732142Y-93196428D01*
X229851190Y-93136904D01*
X229910714Y-93077380D01*
X229970238Y-92958333D01*
X229970238Y-92482142D01*
X229434523Y-93672619D02*
X229375000Y-93732142D01*
X229315476Y-93851190D01*
X229315476Y-94148809D01*
X229375000Y-94267857D01*
X229434523Y-94327380D01*
X229553571Y-94386904D01*
X229672619Y-94386904D01*
X229851190Y-94327380D01*
X230565476Y-93613095D01*
X230565476Y-94386904D01*
X229732142Y-95458333D02*
X230565476Y-95458333D01*
X229255952Y-95160714D02*
X230148809Y-94863095D01*
X230148809Y-95636904D01*
X230565476Y-88482142D02*
X229315476Y-88482142D01*
X229315476Y-88958333D01*
X229375000Y-89077380D01*
X229434523Y-89136904D01*
X229553571Y-89196428D01*
X229732142Y-89196428D01*
X229851190Y-89136904D01*
X229910714Y-89077380D01*
X229970238Y-88958333D01*
X229970238Y-88482142D01*
X229434523Y-89672619D02*
X229375000Y-89732142D01*
X229315476Y-89851190D01*
X229315476Y-90148809D01*
X229375000Y-90267857D01*
X229434523Y-90327380D01*
X229553571Y-90386904D01*
X229672619Y-90386904D01*
X229851190Y-90327380D01*
X230565476Y-89613095D01*
X230565476Y-90386904D01*
X229434523Y-90863095D02*
X229375000Y-90922619D01*
X229315476Y-91041666D01*
X229315476Y-91339285D01*
X229375000Y-91458333D01*
X229434523Y-91517857D01*
X229553571Y-91577380D01*
X229672619Y-91577380D01*
X229851190Y-91517857D01*
X230565476Y-90803571D01*
X230565476Y-91577380D01*
X227517857Y-83565476D02*
X227517857Y-82315476D01*
X227041666Y-82315476D01*
X226922619Y-82375000D01*
X226863095Y-82434523D01*
X226803571Y-82553571D01*
X226803571Y-82732142D01*
X226863095Y-82851190D01*
X226922619Y-82910714D01*
X227041666Y-82970238D01*
X227517857Y-82970238D01*
X226327380Y-82434523D02*
X226267857Y-82375000D01*
X226148809Y-82315476D01*
X225851190Y-82315476D01*
X225732142Y-82375000D01*
X225672619Y-82434523D01*
X225613095Y-82553571D01*
X225613095Y-82672619D01*
X225672619Y-82851190D01*
X226386904Y-83565476D01*
X225613095Y-83565476D01*
X224839285Y-82315476D02*
X224720238Y-82315476D01*
X224601190Y-82375000D01*
X224541666Y-82434523D01*
X224482142Y-82553571D01*
X224422619Y-82791666D01*
X224422619Y-83089285D01*
X224482142Y-83327380D01*
X224541666Y-83446428D01*
X224601190Y-83505952D01*
X224720238Y-83565476D01*
X224839285Y-83565476D01*
X224958333Y-83505952D01*
X225017857Y-83446428D01*
X225077380Y-83327380D01*
X225136904Y-83089285D01*
X225136904Y-82791666D01*
X225077380Y-82553571D01*
X225017857Y-82434523D01*
X224958333Y-82375000D01*
X224839285Y-82315476D01*
D11*
X224790000Y-78740000D03*
D12*
X224790000Y-73740000D03*
D13*
X210820000Y-81280000D03*
X210820000Y-78740000D03*
D14*
X210820000Y-76200000D03*
D15*
X205740000Y-76280000D03*
X205740000Y-81280000D03*
X210820000Y-71120000D03*
X205820000Y-71120000D03*
D16*
X221000000Y-86360000D03*
D17*
X221000000Y-83820000D03*
X204470000Y-113030000D03*
D16*
X207010000Y-113030000D03*
X207010000Y-100330000D03*
D17*
X204470000Y-100330000D03*
D12*
X224790000Y-62310000D03*
D11*
X224790000Y-67310000D03*
D14*
X212090000Y-64770000D03*
D13*
X212090000Y-62230000D03*
X212090000Y-59690000D03*
D15*
X207010000Y-66040000D03*
D18*
X207010000Y-58420000D03*
X217170000Y-90170000D03*
D15*
X209550000Y-90170000D03*
X205740000Y-86360000D03*
D18*
X213360000Y-86360000D03*
D15*
X212090000Y-106680000D03*
D18*
X204470000Y-106680000D03*
X209550000Y-93980000D03*
D15*
X217170000Y-93980000D03*
D19*
X226790000Y-107950000D03*
X226790000Y-111760000D03*
X226790000Y-115570000D03*
X226790000Y-90170000D03*
X226790000Y-86360000D03*
X226790000Y-104140000D03*
X226790000Y-97790000D03*
X226790000Y-93980000D03*
D20*
X210820000Y-114990000D03*
X210820000Y-110490000D03*
X217320000Y-114990000D03*
X217320000Y-110490000D03*
X217170000Y-97790000D03*
X217170000Y-102290000D03*
X210670000Y-97790000D03*
X210670000Y-102290000D03*
X210820000Y-124500000D03*
X210820000Y-120000000D03*
X217320000Y-124500000D03*
X217320000Y-120000000D03*
D21*
X201000000Y-54000000D03*
X225000000Y-54000000D03*
X225000000Y-126000000D03*
X201000000Y-126000000D03*
D22*
X208280000Y-71120000D03*
X205740000Y-78740000D03*
X220980000Y-97790000D03*
X220980000Y-114300000D03*
D23*
X210820000Y-76200000D02*
X210820000Y-71120000D01*
X210900000Y-71200000D02*
X210820000Y-71120000D01*
X210820000Y-71120000D02*
X208280000Y-71120000D01*
X208280000Y-71120000D02*
X208280000Y-71120000D01*
X224790000Y-67310000D02*
X223800000Y-67310000D01*
X217450000Y-71120000D02*
X210820000Y-71120000D01*
X221260000Y-67310000D02*
X224790000Y-67310000D01*
X217450000Y-71120000D02*
X221260000Y-67310000D01*
X205740000Y-71200000D02*
X205820000Y-71120000D01*
X205740000Y-76280000D02*
X205740000Y-71200000D01*
X210820000Y-58420000D02*
X212090000Y-59690000D01*
X219710000Y-86360000D02*
X218440000Y-86360000D01*
X208130000Y-100330000D02*
X210670000Y-97790000D01*
X207010000Y-100330000D02*
X208130000Y-100330000D01*
X207010000Y-105410000D02*
X208280000Y-106680000D01*
X208280000Y-106680000D02*
X208280000Y-109220000D01*
X216540000Y-86360000D02*
X218440000Y-86360000D01*
X213360000Y-97790000D02*
X213360000Y-89540000D01*
X213360000Y-89540000D02*
X216540000Y-86360000D01*
X210670000Y-97790000D02*
X213360000Y-97790000D01*
X210820000Y-78740000D02*
X205740000Y-78740000D01*
X205740000Y-78740000D02*
X205740000Y-76280000D01*
X205740000Y-78740000D02*
X205740000Y-78740000D01*
X210820000Y-78740000D02*
X213360000Y-78740000D01*
X220980000Y-73660000D02*
X221060000Y-73740000D01*
X227770000Y-73740000D02*
X229870000Y-75840000D01*
X224790000Y-73740000D02*
X227770000Y-73740000D01*
X213360000Y-78740000D02*
X218440000Y-73660000D01*
X218440000Y-73660000D02*
X218520000Y-73740000D01*
X221060000Y-73740000D02*
X222250000Y-73740000D01*
X218520000Y-73740000D02*
X222250000Y-73740000D01*
X222250000Y-73740000D02*
X224790000Y-73740000D01*
X229870000Y-75840000D02*
X229870000Y-86360000D01*
X210820000Y-110490000D02*
X209550000Y-110490000D01*
X209550000Y-110490000D02*
X208280000Y-109220000D01*
X208280000Y-113030000D02*
X210820000Y-110490000D01*
X207010000Y-113030000D02*
X208280000Y-113030000D01*
X207010000Y-113030000D02*
X207010000Y-116840000D01*
X218440000Y-86360000D02*
X224790000Y-86360000D01*
X224790000Y-86360000D02*
X229870000Y-86360000D01*
X225520000Y-104140000D02*
X226790000Y-104140000D01*
X205740000Y-58420000D02*
X200660000Y-63500000D01*
X200660000Y-116840000D02*
X203200000Y-119380000D01*
X203200000Y-119380000D02*
X204470000Y-119380000D01*
X200660000Y-104140000D02*
X200660000Y-116840000D01*
X200660000Y-63500000D02*
X200660000Y-104140000D01*
X207010000Y-104140000D02*
X200660000Y-104140000D01*
X207010000Y-104140000D02*
X207010000Y-105410000D01*
X207010000Y-100330000D02*
X207010000Y-104140000D01*
X207010000Y-116840000D02*
X205740000Y-118110000D01*
X205740000Y-118110000D02*
X204470000Y-119380000D01*
X208280000Y-118110000D02*
X207010000Y-116840000D01*
X205740000Y-58420000D02*
X207010000Y-58420000D01*
X207010000Y-58420000D02*
X210820000Y-58420000D01*
X208930000Y-118110000D02*
X208280000Y-118110000D01*
X210820000Y-120000000D02*
X208930000Y-118110000D01*
X226790000Y-86360000D02*
X224790000Y-86360000D01*
X226790000Y-86360000D02*
X227360000Y-86360000D01*
X212090000Y-110490000D02*
X210820000Y-110490000D01*
X214630000Y-107950000D02*
X212090000Y-110490000D01*
X219710000Y-107950000D02*
X214630000Y-107950000D01*
X226790000Y-104140000D02*
X223520000Y-104140000D01*
X223520000Y-104140000D02*
X219710000Y-107950000D01*
X208280000Y-118110000D02*
X205740000Y-118110000D01*
X224510000Y-78740000D02*
X223520000Y-78740000D01*
X225780000Y-78740000D02*
X224790000Y-78740000D01*
X205740000Y-81280000D02*
X205740000Y-86360000D01*
X205740000Y-81280000D02*
X210820000Y-81280000D01*
X219710000Y-78740000D02*
X224790000Y-78740000D01*
X218440000Y-78740000D02*
X219710000Y-78740000D01*
X210820000Y-81280000D02*
X215900000Y-81280000D01*
X215900000Y-81280000D02*
X218440000Y-78740000D01*
X215900000Y-83820000D02*
X218440000Y-83820000D01*
X213360000Y-86360000D02*
X215900000Y-83820000D01*
X218440000Y-83820000D02*
X221000000Y-83820000D01*
X204470000Y-106680000D02*
X204470000Y-113030000D01*
X209550000Y-93980000D02*
X207010000Y-93980000D01*
X204470000Y-96520000D02*
X204470000Y-100330000D01*
X207010000Y-93980000D02*
X204470000Y-96520000D01*
X218360000Y-62310000D02*
X224790000Y-62310000D01*
X212090000Y-62230000D02*
X218280000Y-62230000D01*
X218280000Y-62230000D02*
X218360000Y-62310000D01*
X224790000Y-90170000D02*
X217170000Y-90170000D01*
X226790000Y-90170000D02*
X224790000Y-90170000D01*
X217170000Y-93980000D02*
X224790000Y-93980000D01*
X226790000Y-93980000D02*
X224790000Y-93980000D01*
X213360000Y-105410000D02*
X212090000Y-106680000D01*
X224790000Y-97790000D02*
X220980000Y-101600000D01*
X218440000Y-105410000D02*
X213360000Y-105410000D01*
X226790000Y-97790000D02*
X224790000Y-97790000D01*
X220980000Y-101600000D02*
X220980000Y-102870000D01*
X220980000Y-102870000D02*
X218440000Y-105410000D01*
X218319999Y-113990001D02*
X217320000Y-114990000D01*
X223022234Y-107950000D02*
X222000000Y-108972234D01*
X218319999Y-113680001D02*
X218319999Y-113990001D01*
X226790000Y-107950000D02*
X223022234Y-107950000D01*
X221000000Y-111000000D02*
X218319999Y-113680001D01*
X222000000Y-108972234D02*
X222000000Y-109000000D01*
X221000000Y-110000000D02*
X221000000Y-111000000D01*
X222000000Y-109000000D02*
X221000000Y-110000000D01*
X226790000Y-111760000D02*
X225520000Y-111760000D01*
X220980000Y-98480000D02*
X217170000Y-102290000D01*
X220980000Y-97790000D02*
X220980000Y-98480000D01*
X223520000Y-111760000D02*
X220980000Y-114300000D01*
X226790000Y-111760000D02*
X223520000Y-111760000D01*
X226360000Y-115570000D02*
X226790000Y-115570000D01*
X221360000Y-119000000D02*
X221360000Y-120460000D01*
X226790000Y-115570000D02*
X224790000Y-115570000D01*
X221360000Y-120460000D02*
X217320000Y-124500000D01*
X224790000Y-115570000D02*
X221360000Y-119000000D01*
X210820000Y-66040000D02*
X212090000Y-64770000D01*
X203200000Y-87630000D02*
X203200000Y-67310000D01*
X203200000Y-67310000D02*
X204470000Y-66040000D01*
X205740000Y-90170000D02*
X203200000Y-87630000D01*
X204470000Y-66040000D02*
X205740000Y-66040000D01*
X209550000Y-90170000D02*
X205740000Y-90170000D01*
X205740000Y-66040000D02*
X207010000Y-66040000D01*
X207010000Y-66040000D02*
X210820000Y-66040000D01*
M02*
