G04 #@! TF.GenerationSoftware,KiCad,Pcbnew,5.1.5+dfsg1-2build2*
G04 #@! TF.CreationDate,2021-03-07T11:34:37+01:00*
G04 #@! TF.ProjectId,miteThru,6d697465-5468-4727-952e-6b696361645f,rev?*
G04 #@! TF.SameCoordinates,Original*
G04 #@! TF.FileFunction,Soldermask,Top*
G04 #@! TF.FilePolarity,Negative*
%FSLAX46Y46*%
G04 Gerber Fmt 4.6, Leading zero omitted, Abs format (unit mm)*
G04 Created by KiCad (PCBNEW 5.1.5+dfsg1-2build2) date 2021-03-07 11:34:37*
%MOMM*%
%LPD*%
G04 APERTURE LIST*
%ADD10C,0.100000*%
G04 APERTURE END LIST*
D10*
G36*
X217626564Y-123489389D02*
G01*
X217817833Y-123568615D01*
X217817835Y-123568616D01*
X217989973Y-123683635D01*
X218136365Y-123830027D01*
X218251385Y-124002167D01*
X218330611Y-124193436D01*
X218371000Y-124396484D01*
X218371000Y-124603516D01*
X218330611Y-124806564D01*
X218251385Y-124997833D01*
X218251384Y-124997835D01*
X218136365Y-125169973D01*
X217989973Y-125316365D01*
X217817835Y-125431384D01*
X217817834Y-125431385D01*
X217817833Y-125431385D01*
X217626564Y-125510611D01*
X217423516Y-125551000D01*
X217216484Y-125551000D01*
X217013436Y-125510611D01*
X216822167Y-125431385D01*
X216822166Y-125431385D01*
X216822165Y-125431384D01*
X216650027Y-125316365D01*
X216503635Y-125169973D01*
X216388616Y-124997835D01*
X216388615Y-124997833D01*
X216309389Y-124806564D01*
X216269000Y-124603516D01*
X216269000Y-124396484D01*
X216309389Y-124193436D01*
X216388615Y-124002167D01*
X216503635Y-123830027D01*
X216650027Y-123683635D01*
X216822165Y-123568616D01*
X216822167Y-123568615D01*
X217013436Y-123489389D01*
X217216484Y-123449000D01*
X217423516Y-123449000D01*
X217626564Y-123489389D01*
G37*
G36*
X211126564Y-123489389D02*
G01*
X211317833Y-123568615D01*
X211317835Y-123568616D01*
X211489973Y-123683635D01*
X211636365Y-123830027D01*
X211751385Y-124002167D01*
X211830611Y-124193436D01*
X211871000Y-124396484D01*
X211871000Y-124603516D01*
X211830611Y-124806564D01*
X211751385Y-124997833D01*
X211751384Y-124997835D01*
X211636365Y-125169973D01*
X211489973Y-125316365D01*
X211317835Y-125431384D01*
X211317834Y-125431385D01*
X211317833Y-125431385D01*
X211126564Y-125510611D01*
X210923516Y-125551000D01*
X210716484Y-125551000D01*
X210513436Y-125510611D01*
X210322167Y-125431385D01*
X210322166Y-125431385D01*
X210322165Y-125431384D01*
X210150027Y-125316365D01*
X210003635Y-125169973D01*
X209888616Y-124997835D01*
X209888615Y-124997833D01*
X209809389Y-124806564D01*
X209769000Y-124603516D01*
X209769000Y-124396484D01*
X209809389Y-124193436D01*
X209888615Y-124002167D01*
X210003635Y-123830027D01*
X210150027Y-123683635D01*
X210322165Y-123568616D01*
X210322167Y-123568615D01*
X210513436Y-123489389D01*
X210716484Y-123449000D01*
X210923516Y-123449000D01*
X211126564Y-123489389D01*
G37*
G36*
X211126564Y-118989389D02*
G01*
X211317833Y-119068615D01*
X211317835Y-119068616D01*
X211489973Y-119183635D01*
X211636365Y-119330027D01*
X211751385Y-119502167D01*
X211830611Y-119693436D01*
X211871000Y-119896484D01*
X211871000Y-120103516D01*
X211830611Y-120306564D01*
X211751385Y-120497833D01*
X211751384Y-120497835D01*
X211636365Y-120669973D01*
X211489973Y-120816365D01*
X211317835Y-120931384D01*
X211317834Y-120931385D01*
X211317833Y-120931385D01*
X211126564Y-121010611D01*
X210923516Y-121051000D01*
X210716484Y-121051000D01*
X210513436Y-121010611D01*
X210322167Y-120931385D01*
X210322166Y-120931385D01*
X210322165Y-120931384D01*
X210150027Y-120816365D01*
X210003635Y-120669973D01*
X209888616Y-120497835D01*
X209888615Y-120497833D01*
X209809389Y-120306564D01*
X209769000Y-120103516D01*
X209769000Y-119896484D01*
X209809389Y-119693436D01*
X209888615Y-119502167D01*
X210003635Y-119330027D01*
X210150027Y-119183635D01*
X210322165Y-119068616D01*
X210322167Y-119068615D01*
X210513436Y-118989389D01*
X210716484Y-118949000D01*
X210923516Y-118949000D01*
X211126564Y-118989389D01*
G37*
G36*
X217626564Y-118989389D02*
G01*
X217817833Y-119068615D01*
X217817835Y-119068616D01*
X217989973Y-119183635D01*
X218136365Y-119330027D01*
X218251385Y-119502167D01*
X218330611Y-119693436D01*
X218371000Y-119896484D01*
X218371000Y-120103516D01*
X218330611Y-120306564D01*
X218251385Y-120497833D01*
X218251384Y-120497835D01*
X218136365Y-120669973D01*
X217989973Y-120816365D01*
X217817835Y-120931384D01*
X217817834Y-120931385D01*
X217817833Y-120931385D01*
X217626564Y-121010611D01*
X217423516Y-121051000D01*
X217216484Y-121051000D01*
X217013436Y-121010611D01*
X216822167Y-120931385D01*
X216822166Y-120931385D01*
X216822165Y-120931384D01*
X216650027Y-120816365D01*
X216503635Y-120669973D01*
X216388616Y-120497835D01*
X216388615Y-120497833D01*
X216309389Y-120306564D01*
X216269000Y-120103516D01*
X216269000Y-119896484D01*
X216309389Y-119693436D01*
X216388615Y-119502167D01*
X216503635Y-119330027D01*
X216650027Y-119183635D01*
X216822165Y-119068616D01*
X216822167Y-119068615D01*
X217013436Y-118989389D01*
X217216484Y-118949000D01*
X217423516Y-118949000D01*
X217626564Y-118989389D01*
G37*
G36*
X227169487Y-114318996D02*
G01*
X227406253Y-114417068D01*
X227406255Y-114417069D01*
X227619339Y-114559447D01*
X227800553Y-114740661D01*
X227897989Y-114886484D01*
X227942932Y-114953747D01*
X228041004Y-115190513D01*
X228091000Y-115441861D01*
X228091000Y-115698139D01*
X228041004Y-115949487D01*
X228003098Y-116041000D01*
X227942931Y-116186255D01*
X227800553Y-116399339D01*
X227619339Y-116580553D01*
X227406255Y-116722931D01*
X227406254Y-116722932D01*
X227406253Y-116722932D01*
X227169487Y-116821004D01*
X226918139Y-116871000D01*
X226661861Y-116871000D01*
X226410513Y-116821004D01*
X226173747Y-116722932D01*
X226173746Y-116722932D01*
X226173745Y-116722931D01*
X225960661Y-116580553D01*
X225779447Y-116399339D01*
X225637069Y-116186255D01*
X225576902Y-116041000D01*
X225538996Y-115949487D01*
X225489000Y-115698139D01*
X225489000Y-115441861D01*
X225538996Y-115190513D01*
X225637068Y-114953747D01*
X225682012Y-114886484D01*
X225779447Y-114740661D01*
X225960661Y-114559447D01*
X226173745Y-114417069D01*
X226173747Y-114417068D01*
X226410513Y-114318996D01*
X226661861Y-114269000D01*
X226918139Y-114269000D01*
X227169487Y-114318996D01*
G37*
G36*
X211126564Y-113979389D02*
G01*
X211317833Y-114058615D01*
X211317835Y-114058616D01*
X211489973Y-114173635D01*
X211636365Y-114320027D01*
X211751385Y-114492167D01*
X211830611Y-114683436D01*
X211871000Y-114886484D01*
X211871000Y-115093516D01*
X211830611Y-115296564D01*
X211770427Y-115441861D01*
X211751384Y-115487835D01*
X211636365Y-115659973D01*
X211489973Y-115806365D01*
X211317835Y-115921384D01*
X211317834Y-115921385D01*
X211317833Y-115921385D01*
X211126564Y-116000611D01*
X210923516Y-116041000D01*
X210716484Y-116041000D01*
X210513436Y-116000611D01*
X210322167Y-115921385D01*
X210322166Y-115921385D01*
X210322165Y-115921384D01*
X210150027Y-115806365D01*
X210003635Y-115659973D01*
X209888616Y-115487835D01*
X209869573Y-115441861D01*
X209809389Y-115296564D01*
X209769000Y-115093516D01*
X209769000Y-114886484D01*
X209809389Y-114683436D01*
X209888615Y-114492167D01*
X210003635Y-114320027D01*
X210150027Y-114173635D01*
X210322165Y-114058616D01*
X210322167Y-114058615D01*
X210513436Y-113979389D01*
X210716484Y-113939000D01*
X210923516Y-113939000D01*
X211126564Y-113979389D01*
G37*
G36*
X217626564Y-113979389D02*
G01*
X217817833Y-114058615D01*
X217817835Y-114058616D01*
X217989973Y-114173635D01*
X218136365Y-114320027D01*
X218251385Y-114492167D01*
X218330611Y-114683436D01*
X218371000Y-114886484D01*
X218371000Y-115093516D01*
X218330611Y-115296564D01*
X218270427Y-115441861D01*
X218251384Y-115487835D01*
X218136365Y-115659973D01*
X217989973Y-115806365D01*
X217817835Y-115921384D01*
X217817834Y-115921385D01*
X217817833Y-115921385D01*
X217626564Y-116000611D01*
X217423516Y-116041000D01*
X217216484Y-116041000D01*
X217013436Y-116000611D01*
X216822167Y-115921385D01*
X216822166Y-115921385D01*
X216822165Y-115921384D01*
X216650027Y-115806365D01*
X216503635Y-115659973D01*
X216388616Y-115487835D01*
X216369573Y-115441861D01*
X216309389Y-115296564D01*
X216269000Y-115093516D01*
X216269000Y-114886484D01*
X216309389Y-114683436D01*
X216388615Y-114492167D01*
X216503635Y-114320027D01*
X216650027Y-114173635D01*
X216822165Y-114058616D01*
X216822167Y-114058615D01*
X217013436Y-113979389D01*
X217216484Y-113939000D01*
X217423516Y-113939000D01*
X217626564Y-113979389D01*
G37*
G36*
X207961000Y-113981000D02*
G01*
X206059000Y-113981000D01*
X206059000Y-112079000D01*
X207961000Y-112079000D01*
X207961000Y-113981000D01*
G37*
G36*
X204747395Y-112115546D02*
G01*
X204920466Y-112187234D01*
X204920467Y-112187235D01*
X205076227Y-112291310D01*
X205208690Y-112423773D01*
X205208691Y-112423775D01*
X205312766Y-112579534D01*
X205384454Y-112752605D01*
X205421000Y-112936333D01*
X205421000Y-113123667D01*
X205384454Y-113307395D01*
X205312766Y-113480466D01*
X205312765Y-113480467D01*
X205208690Y-113636227D01*
X205076227Y-113768690D01*
X204997818Y-113821081D01*
X204920466Y-113872766D01*
X204747395Y-113944454D01*
X204563667Y-113981000D01*
X204376333Y-113981000D01*
X204192605Y-113944454D01*
X204019534Y-113872766D01*
X203942182Y-113821081D01*
X203863773Y-113768690D01*
X203731310Y-113636227D01*
X203627235Y-113480467D01*
X203627234Y-113480466D01*
X203555546Y-113307395D01*
X203519000Y-113123667D01*
X203519000Y-112936333D01*
X203555546Y-112752605D01*
X203627234Y-112579534D01*
X203731309Y-112423775D01*
X203731310Y-112423773D01*
X203863773Y-112291310D01*
X204019533Y-112187235D01*
X204019534Y-112187234D01*
X204192605Y-112115546D01*
X204376333Y-112079000D01*
X204563667Y-112079000D01*
X204747395Y-112115546D01*
G37*
G36*
X227169487Y-110508996D02*
G01*
X227406253Y-110607068D01*
X227406255Y-110607069D01*
X227619339Y-110749447D01*
X227800553Y-110930661D01*
X227942932Y-111143747D01*
X228041004Y-111380513D01*
X228091000Y-111631861D01*
X228091000Y-111888139D01*
X228041004Y-112139487D01*
X227942932Y-112376253D01*
X227942931Y-112376255D01*
X227800553Y-112589339D01*
X227619339Y-112770553D01*
X227406255Y-112912931D01*
X227406254Y-112912932D01*
X227406253Y-112912932D01*
X227169487Y-113011004D01*
X226918139Y-113061000D01*
X226661861Y-113061000D01*
X226410513Y-113011004D01*
X226173747Y-112912932D01*
X226173746Y-112912932D01*
X226173745Y-112912931D01*
X225960661Y-112770553D01*
X225779447Y-112589339D01*
X225637069Y-112376255D01*
X225637068Y-112376253D01*
X225538996Y-112139487D01*
X225489000Y-111888139D01*
X225489000Y-111631861D01*
X225538996Y-111380513D01*
X225637068Y-111143747D01*
X225779447Y-110930661D01*
X225960661Y-110749447D01*
X226173745Y-110607069D01*
X226173747Y-110607068D01*
X226410513Y-110508996D01*
X226661861Y-110459000D01*
X226918139Y-110459000D01*
X227169487Y-110508996D01*
G37*
G36*
X217626564Y-109479389D02*
G01*
X217817833Y-109558615D01*
X217817835Y-109558616D01*
X217989973Y-109673635D01*
X218136365Y-109820027D01*
X218251385Y-109992167D01*
X218330611Y-110183436D01*
X218371000Y-110386484D01*
X218371000Y-110593516D01*
X218330611Y-110796564D01*
X218275066Y-110930661D01*
X218251384Y-110987835D01*
X218136365Y-111159973D01*
X217989973Y-111306365D01*
X217817835Y-111421384D01*
X217817834Y-111421385D01*
X217817833Y-111421385D01*
X217626564Y-111500611D01*
X217423516Y-111541000D01*
X217216484Y-111541000D01*
X217013436Y-111500611D01*
X216822167Y-111421385D01*
X216822166Y-111421385D01*
X216822165Y-111421384D01*
X216650027Y-111306365D01*
X216503635Y-111159973D01*
X216388616Y-110987835D01*
X216364934Y-110930661D01*
X216309389Y-110796564D01*
X216269000Y-110593516D01*
X216269000Y-110386484D01*
X216309389Y-110183436D01*
X216388615Y-109992167D01*
X216503635Y-109820027D01*
X216650027Y-109673635D01*
X216822165Y-109558616D01*
X216822167Y-109558615D01*
X217013436Y-109479389D01*
X217216484Y-109439000D01*
X217423516Y-109439000D01*
X217626564Y-109479389D01*
G37*
G36*
X211126564Y-109479389D02*
G01*
X211317833Y-109558615D01*
X211317835Y-109558616D01*
X211489973Y-109673635D01*
X211636365Y-109820027D01*
X211751385Y-109992167D01*
X211830611Y-110183436D01*
X211871000Y-110386484D01*
X211871000Y-110593516D01*
X211830611Y-110796564D01*
X211775066Y-110930661D01*
X211751384Y-110987835D01*
X211636365Y-111159973D01*
X211489973Y-111306365D01*
X211317835Y-111421384D01*
X211317834Y-111421385D01*
X211317833Y-111421385D01*
X211126564Y-111500611D01*
X210923516Y-111541000D01*
X210716484Y-111541000D01*
X210513436Y-111500611D01*
X210322167Y-111421385D01*
X210322166Y-111421385D01*
X210322165Y-111421384D01*
X210150027Y-111306365D01*
X210003635Y-111159973D01*
X209888616Y-110987835D01*
X209864934Y-110930661D01*
X209809389Y-110796564D01*
X209769000Y-110593516D01*
X209769000Y-110386484D01*
X209809389Y-110183436D01*
X209888615Y-109992167D01*
X210003635Y-109820027D01*
X210150027Y-109673635D01*
X210322165Y-109558616D01*
X210322167Y-109558615D01*
X210513436Y-109479389D01*
X210716484Y-109439000D01*
X210923516Y-109439000D01*
X211126564Y-109479389D01*
G37*
G36*
X227169487Y-106698996D02*
G01*
X227406253Y-106797068D01*
X227406255Y-106797069D01*
X227602549Y-106928228D01*
X227619339Y-106939447D01*
X227800553Y-107120661D01*
X227942932Y-107333747D01*
X228041004Y-107570513D01*
X228091000Y-107821861D01*
X228091000Y-108078139D01*
X228041004Y-108329487D01*
X227942932Y-108566253D01*
X227942931Y-108566255D01*
X227800553Y-108779339D01*
X227619339Y-108960553D01*
X227406255Y-109102931D01*
X227406254Y-109102932D01*
X227406253Y-109102932D01*
X227169487Y-109201004D01*
X226918139Y-109251000D01*
X226661861Y-109251000D01*
X226410513Y-109201004D01*
X226173747Y-109102932D01*
X226173746Y-109102932D01*
X226173745Y-109102931D01*
X225960661Y-108960553D01*
X225779447Y-108779339D01*
X225637069Y-108566255D01*
X225637068Y-108566253D01*
X225538996Y-108329487D01*
X225489000Y-108078139D01*
X225489000Y-107821861D01*
X225538996Y-107570513D01*
X225637068Y-107333747D01*
X225779447Y-107120661D01*
X225960661Y-106939447D01*
X225977451Y-106928228D01*
X226173745Y-106797069D01*
X226173747Y-106797068D01*
X226410513Y-106698996D01*
X226661861Y-106649000D01*
X226918139Y-106649000D01*
X227169487Y-106698996D01*
G37*
G36*
X212338228Y-105861703D02*
G01*
X212493100Y-105925853D01*
X212632481Y-106018985D01*
X212751015Y-106137519D01*
X212844147Y-106276900D01*
X212908297Y-106431772D01*
X212941000Y-106596184D01*
X212941000Y-106763816D01*
X212908297Y-106928228D01*
X212844147Y-107083100D01*
X212751015Y-107222481D01*
X212632481Y-107341015D01*
X212493100Y-107434147D01*
X212338228Y-107498297D01*
X212173816Y-107531000D01*
X212006184Y-107531000D01*
X211841772Y-107498297D01*
X211686900Y-107434147D01*
X211547519Y-107341015D01*
X211428985Y-107222481D01*
X211335853Y-107083100D01*
X211271703Y-106928228D01*
X211239000Y-106763816D01*
X211239000Y-106596184D01*
X211271703Y-106431772D01*
X211335853Y-106276900D01*
X211428985Y-106137519D01*
X211547519Y-106018985D01*
X211686900Y-105925853D01*
X211841772Y-105861703D01*
X212006184Y-105829000D01*
X212173816Y-105829000D01*
X212338228Y-105861703D01*
G37*
G36*
X204718228Y-105861703D02*
G01*
X204873100Y-105925853D01*
X205012481Y-106018985D01*
X205131015Y-106137519D01*
X205224147Y-106276900D01*
X205288297Y-106431772D01*
X205321000Y-106596184D01*
X205321000Y-106763816D01*
X205288297Y-106928228D01*
X205224147Y-107083100D01*
X205131015Y-107222481D01*
X205012481Y-107341015D01*
X204873100Y-107434147D01*
X204718228Y-107498297D01*
X204553816Y-107531000D01*
X204386184Y-107531000D01*
X204221772Y-107498297D01*
X204066900Y-107434147D01*
X203927519Y-107341015D01*
X203808985Y-107222481D01*
X203715853Y-107083100D01*
X203651703Y-106928228D01*
X203619000Y-106763816D01*
X203619000Y-106596184D01*
X203651703Y-106431772D01*
X203715853Y-106276900D01*
X203808985Y-106137519D01*
X203927519Y-106018985D01*
X204066900Y-105925853D01*
X204221772Y-105861703D01*
X204386184Y-105829000D01*
X204553816Y-105829000D01*
X204718228Y-105861703D01*
G37*
G36*
X227169487Y-102888996D02*
G01*
X227406253Y-102987068D01*
X227406255Y-102987069D01*
X227584794Y-103106365D01*
X227619339Y-103129447D01*
X227800553Y-103310661D01*
X227942932Y-103523747D01*
X228041004Y-103760513D01*
X228091000Y-104011861D01*
X228091000Y-104268139D01*
X228041004Y-104519487D01*
X227942932Y-104756253D01*
X227942931Y-104756255D01*
X227800553Y-104969339D01*
X227619339Y-105150553D01*
X227406255Y-105292931D01*
X227406254Y-105292932D01*
X227406253Y-105292932D01*
X227169487Y-105391004D01*
X226918139Y-105441000D01*
X226661861Y-105441000D01*
X226410513Y-105391004D01*
X226173747Y-105292932D01*
X226173746Y-105292932D01*
X226173745Y-105292931D01*
X225960661Y-105150553D01*
X225779447Y-104969339D01*
X225637069Y-104756255D01*
X225637068Y-104756253D01*
X225538996Y-104519487D01*
X225489000Y-104268139D01*
X225489000Y-104011861D01*
X225538996Y-103760513D01*
X225637068Y-103523747D01*
X225779447Y-103310661D01*
X225960661Y-103129447D01*
X225995206Y-103106365D01*
X226173745Y-102987069D01*
X226173747Y-102987068D01*
X226410513Y-102888996D01*
X226661861Y-102839000D01*
X226918139Y-102839000D01*
X227169487Y-102888996D01*
G37*
G36*
X217476564Y-101279389D02*
G01*
X217667833Y-101358615D01*
X217667835Y-101358616D01*
X217839973Y-101473635D01*
X217986365Y-101620027D01*
X218101385Y-101792167D01*
X218180611Y-101983436D01*
X218221000Y-102186484D01*
X218221000Y-102393516D01*
X218180611Y-102596564D01*
X218101385Y-102787833D01*
X218101384Y-102787835D01*
X217986365Y-102959973D01*
X217839973Y-103106365D01*
X217667835Y-103221384D01*
X217667834Y-103221385D01*
X217667833Y-103221385D01*
X217476564Y-103300611D01*
X217273516Y-103341000D01*
X217066484Y-103341000D01*
X216863436Y-103300611D01*
X216672167Y-103221385D01*
X216672166Y-103221385D01*
X216672165Y-103221384D01*
X216500027Y-103106365D01*
X216353635Y-102959973D01*
X216238616Y-102787835D01*
X216238615Y-102787833D01*
X216159389Y-102596564D01*
X216119000Y-102393516D01*
X216119000Y-102186484D01*
X216159389Y-101983436D01*
X216238615Y-101792167D01*
X216353635Y-101620027D01*
X216500027Y-101473635D01*
X216672165Y-101358616D01*
X216672167Y-101358615D01*
X216863436Y-101279389D01*
X217066484Y-101239000D01*
X217273516Y-101239000D01*
X217476564Y-101279389D01*
G37*
G36*
X210976564Y-101279389D02*
G01*
X211167833Y-101358615D01*
X211167835Y-101358616D01*
X211339973Y-101473635D01*
X211486365Y-101620027D01*
X211601385Y-101792167D01*
X211680611Y-101983436D01*
X211721000Y-102186484D01*
X211721000Y-102393516D01*
X211680611Y-102596564D01*
X211601385Y-102787833D01*
X211601384Y-102787835D01*
X211486365Y-102959973D01*
X211339973Y-103106365D01*
X211167835Y-103221384D01*
X211167834Y-103221385D01*
X211167833Y-103221385D01*
X210976564Y-103300611D01*
X210773516Y-103341000D01*
X210566484Y-103341000D01*
X210363436Y-103300611D01*
X210172167Y-103221385D01*
X210172166Y-103221385D01*
X210172165Y-103221384D01*
X210000027Y-103106365D01*
X209853635Y-102959973D01*
X209738616Y-102787835D01*
X209738615Y-102787833D01*
X209659389Y-102596564D01*
X209619000Y-102393516D01*
X209619000Y-102186484D01*
X209659389Y-101983436D01*
X209738615Y-101792167D01*
X209853635Y-101620027D01*
X210000027Y-101473635D01*
X210172165Y-101358616D01*
X210172167Y-101358615D01*
X210363436Y-101279389D01*
X210566484Y-101239000D01*
X210773516Y-101239000D01*
X210976564Y-101279389D01*
G37*
G36*
X204747395Y-99415546D02*
G01*
X204920466Y-99487234D01*
X204920467Y-99487235D01*
X205076227Y-99591310D01*
X205208690Y-99723773D01*
X205208691Y-99723775D01*
X205312766Y-99879534D01*
X205384454Y-100052605D01*
X205421000Y-100236333D01*
X205421000Y-100423667D01*
X205384454Y-100607395D01*
X205312766Y-100780466D01*
X205312765Y-100780467D01*
X205208690Y-100936227D01*
X205076227Y-101068690D01*
X204997818Y-101121081D01*
X204920466Y-101172766D01*
X204747395Y-101244454D01*
X204563667Y-101281000D01*
X204376333Y-101281000D01*
X204192605Y-101244454D01*
X204019534Y-101172766D01*
X203942182Y-101121081D01*
X203863773Y-101068690D01*
X203731310Y-100936227D01*
X203627235Y-100780467D01*
X203627234Y-100780466D01*
X203555546Y-100607395D01*
X203519000Y-100423667D01*
X203519000Y-100236333D01*
X203555546Y-100052605D01*
X203627234Y-99879534D01*
X203731309Y-99723775D01*
X203731310Y-99723773D01*
X203863773Y-99591310D01*
X204019533Y-99487235D01*
X204019534Y-99487234D01*
X204192605Y-99415546D01*
X204376333Y-99379000D01*
X204563667Y-99379000D01*
X204747395Y-99415546D01*
G37*
G36*
X207961000Y-101281000D02*
G01*
X206059000Y-101281000D01*
X206059000Y-99379000D01*
X207961000Y-99379000D01*
X207961000Y-101281000D01*
G37*
G36*
X227169487Y-96538996D02*
G01*
X227406253Y-96637068D01*
X227406255Y-96637069D01*
X227558806Y-96739000D01*
X227619339Y-96779447D01*
X227800553Y-96960661D01*
X227942932Y-97173747D01*
X228041004Y-97410513D01*
X228091000Y-97661861D01*
X228091000Y-97918139D01*
X228041004Y-98169487D01*
X227991983Y-98287833D01*
X227942931Y-98406255D01*
X227800553Y-98619339D01*
X227619339Y-98800553D01*
X227406255Y-98942931D01*
X227406254Y-98942932D01*
X227406253Y-98942932D01*
X227169487Y-99041004D01*
X226918139Y-99091000D01*
X226661861Y-99091000D01*
X226410513Y-99041004D01*
X226173747Y-98942932D01*
X226173746Y-98942932D01*
X226173745Y-98942931D01*
X225960661Y-98800553D01*
X225779447Y-98619339D01*
X225637069Y-98406255D01*
X225588017Y-98287833D01*
X225538996Y-98169487D01*
X225489000Y-97918139D01*
X225489000Y-97661861D01*
X225538996Y-97410513D01*
X225637068Y-97173747D01*
X225779447Y-96960661D01*
X225960661Y-96779447D01*
X226021194Y-96739000D01*
X226173745Y-96637069D01*
X226173747Y-96637068D01*
X226410513Y-96538996D01*
X226661861Y-96489000D01*
X226918139Y-96489000D01*
X227169487Y-96538996D01*
G37*
G36*
X217476564Y-96779389D02*
G01*
X217667833Y-96858615D01*
X217667835Y-96858616D01*
X217839973Y-96973635D01*
X217986365Y-97120027D01*
X218022260Y-97173747D01*
X218101385Y-97292167D01*
X218180611Y-97483436D01*
X218221000Y-97686484D01*
X218221000Y-97893516D01*
X218180611Y-98096564D01*
X218150405Y-98169487D01*
X218101384Y-98287835D01*
X217986365Y-98459973D01*
X217839973Y-98606365D01*
X217667835Y-98721384D01*
X217667834Y-98721385D01*
X217667833Y-98721385D01*
X217476564Y-98800611D01*
X217273516Y-98841000D01*
X217066484Y-98841000D01*
X216863436Y-98800611D01*
X216672167Y-98721385D01*
X216672166Y-98721385D01*
X216672165Y-98721384D01*
X216500027Y-98606365D01*
X216353635Y-98459973D01*
X216238616Y-98287835D01*
X216189595Y-98169487D01*
X216159389Y-98096564D01*
X216119000Y-97893516D01*
X216119000Y-97686484D01*
X216159389Y-97483436D01*
X216238615Y-97292167D01*
X216317741Y-97173747D01*
X216353635Y-97120027D01*
X216500027Y-96973635D01*
X216672165Y-96858616D01*
X216672167Y-96858615D01*
X216863436Y-96779389D01*
X217066484Y-96739000D01*
X217273516Y-96739000D01*
X217476564Y-96779389D01*
G37*
G36*
X210976564Y-96779389D02*
G01*
X211167833Y-96858615D01*
X211167835Y-96858616D01*
X211339973Y-96973635D01*
X211486365Y-97120027D01*
X211522260Y-97173747D01*
X211601385Y-97292167D01*
X211680611Y-97483436D01*
X211721000Y-97686484D01*
X211721000Y-97893516D01*
X211680611Y-98096564D01*
X211650405Y-98169487D01*
X211601384Y-98287835D01*
X211486365Y-98459973D01*
X211339973Y-98606365D01*
X211167835Y-98721384D01*
X211167834Y-98721385D01*
X211167833Y-98721385D01*
X210976564Y-98800611D01*
X210773516Y-98841000D01*
X210566484Y-98841000D01*
X210363436Y-98800611D01*
X210172167Y-98721385D01*
X210172166Y-98721385D01*
X210172165Y-98721384D01*
X210000027Y-98606365D01*
X209853635Y-98459973D01*
X209738616Y-98287835D01*
X209689595Y-98169487D01*
X209659389Y-98096564D01*
X209619000Y-97893516D01*
X209619000Y-97686484D01*
X209659389Y-97483436D01*
X209738615Y-97292167D01*
X209817741Y-97173747D01*
X209853635Y-97120027D01*
X210000027Y-96973635D01*
X210172165Y-96858616D01*
X210172167Y-96858615D01*
X210363436Y-96779389D01*
X210566484Y-96739000D01*
X210773516Y-96739000D01*
X210976564Y-96779389D01*
G37*
G36*
X227169487Y-92728996D02*
G01*
X227406253Y-92827068D01*
X227406255Y-92827069D01*
X227619339Y-92969447D01*
X227800553Y-93150661D01*
X227942932Y-93363747D01*
X228041004Y-93600513D01*
X228091000Y-93851861D01*
X228091000Y-94108139D01*
X228041004Y-94359487D01*
X228031224Y-94383097D01*
X227942931Y-94596255D01*
X227800553Y-94809339D01*
X227619339Y-94990553D01*
X227406255Y-95132931D01*
X227406254Y-95132932D01*
X227406253Y-95132932D01*
X227169487Y-95231004D01*
X226918139Y-95281000D01*
X226661861Y-95281000D01*
X226410513Y-95231004D01*
X226173747Y-95132932D01*
X226173746Y-95132932D01*
X226173745Y-95132931D01*
X225960661Y-94990553D01*
X225779447Y-94809339D01*
X225637069Y-94596255D01*
X225548776Y-94383097D01*
X225538996Y-94359487D01*
X225489000Y-94108139D01*
X225489000Y-93851861D01*
X225538996Y-93600513D01*
X225637068Y-93363747D01*
X225779447Y-93150661D01*
X225960661Y-92969447D01*
X226173745Y-92827069D01*
X226173747Y-92827068D01*
X226410513Y-92728996D01*
X226661861Y-92679000D01*
X226918139Y-92679000D01*
X227169487Y-92728996D01*
G37*
G36*
X209798228Y-93161703D02*
G01*
X209953100Y-93225853D01*
X210092481Y-93318985D01*
X210211015Y-93437519D01*
X210304147Y-93576900D01*
X210368297Y-93731772D01*
X210401000Y-93896184D01*
X210401000Y-94063816D01*
X210368297Y-94228228D01*
X210304147Y-94383100D01*
X210211015Y-94522481D01*
X210092481Y-94641015D01*
X209953100Y-94734147D01*
X209798228Y-94798297D01*
X209633816Y-94831000D01*
X209466184Y-94831000D01*
X209301772Y-94798297D01*
X209146900Y-94734147D01*
X209007519Y-94641015D01*
X208888985Y-94522481D01*
X208795853Y-94383100D01*
X208731703Y-94228228D01*
X208699000Y-94063816D01*
X208699000Y-93896184D01*
X208731703Y-93731772D01*
X208795853Y-93576900D01*
X208888985Y-93437519D01*
X209007519Y-93318985D01*
X209146900Y-93225853D01*
X209301772Y-93161703D01*
X209466184Y-93129000D01*
X209633816Y-93129000D01*
X209798228Y-93161703D01*
G37*
G36*
X217418228Y-93161703D02*
G01*
X217573100Y-93225853D01*
X217712481Y-93318985D01*
X217831015Y-93437519D01*
X217924147Y-93576900D01*
X217988297Y-93731772D01*
X218021000Y-93896184D01*
X218021000Y-94063816D01*
X217988297Y-94228228D01*
X217924147Y-94383100D01*
X217831015Y-94522481D01*
X217712481Y-94641015D01*
X217573100Y-94734147D01*
X217418228Y-94798297D01*
X217253816Y-94831000D01*
X217086184Y-94831000D01*
X216921772Y-94798297D01*
X216766900Y-94734147D01*
X216627519Y-94641015D01*
X216508985Y-94522481D01*
X216415853Y-94383100D01*
X216351703Y-94228228D01*
X216319000Y-94063816D01*
X216319000Y-93896184D01*
X216351703Y-93731772D01*
X216415853Y-93576900D01*
X216508985Y-93437519D01*
X216627519Y-93318985D01*
X216766900Y-93225853D01*
X216921772Y-93161703D01*
X217086184Y-93129000D01*
X217253816Y-93129000D01*
X217418228Y-93161703D01*
G37*
G36*
X227169487Y-88918996D02*
G01*
X227406253Y-89017068D01*
X227406255Y-89017069D01*
X227619339Y-89159447D01*
X227800553Y-89340661D01*
X227942932Y-89553747D01*
X228041004Y-89790513D01*
X228091000Y-90041861D01*
X228091000Y-90298139D01*
X228041004Y-90549487D01*
X228031224Y-90573097D01*
X227942931Y-90786255D01*
X227800553Y-90999339D01*
X227619339Y-91180553D01*
X227406255Y-91322931D01*
X227406254Y-91322932D01*
X227406253Y-91322932D01*
X227169487Y-91421004D01*
X226918139Y-91471000D01*
X226661861Y-91471000D01*
X226410513Y-91421004D01*
X226173747Y-91322932D01*
X226173746Y-91322932D01*
X226173745Y-91322931D01*
X225960661Y-91180553D01*
X225779447Y-90999339D01*
X225637069Y-90786255D01*
X225548776Y-90573097D01*
X225538996Y-90549487D01*
X225489000Y-90298139D01*
X225489000Y-90041861D01*
X225538996Y-89790513D01*
X225637068Y-89553747D01*
X225779447Y-89340661D01*
X225960661Y-89159447D01*
X226173745Y-89017069D01*
X226173747Y-89017068D01*
X226410513Y-88918996D01*
X226661861Y-88869000D01*
X226918139Y-88869000D01*
X227169487Y-88918996D01*
G37*
G36*
X217418228Y-89351703D02*
G01*
X217573100Y-89415853D01*
X217712481Y-89508985D01*
X217831015Y-89627519D01*
X217924147Y-89766900D01*
X217988297Y-89921772D01*
X218021000Y-90086184D01*
X218021000Y-90253816D01*
X217988297Y-90418228D01*
X217924147Y-90573100D01*
X217831015Y-90712481D01*
X217712481Y-90831015D01*
X217573100Y-90924147D01*
X217418228Y-90988297D01*
X217253816Y-91021000D01*
X217086184Y-91021000D01*
X216921772Y-90988297D01*
X216766900Y-90924147D01*
X216627519Y-90831015D01*
X216508985Y-90712481D01*
X216415853Y-90573100D01*
X216351703Y-90418228D01*
X216319000Y-90253816D01*
X216319000Y-90086184D01*
X216351703Y-89921772D01*
X216415853Y-89766900D01*
X216508985Y-89627519D01*
X216627519Y-89508985D01*
X216766900Y-89415853D01*
X216921772Y-89351703D01*
X217086184Y-89319000D01*
X217253816Y-89319000D01*
X217418228Y-89351703D01*
G37*
G36*
X209798228Y-89351703D02*
G01*
X209953100Y-89415853D01*
X210092481Y-89508985D01*
X210211015Y-89627519D01*
X210304147Y-89766900D01*
X210368297Y-89921772D01*
X210401000Y-90086184D01*
X210401000Y-90253816D01*
X210368297Y-90418228D01*
X210304147Y-90573100D01*
X210211015Y-90712481D01*
X210092481Y-90831015D01*
X209953100Y-90924147D01*
X209798228Y-90988297D01*
X209633816Y-91021000D01*
X209466184Y-91021000D01*
X209301772Y-90988297D01*
X209146900Y-90924147D01*
X209007519Y-90831015D01*
X208888985Y-90712481D01*
X208795853Y-90573100D01*
X208731703Y-90418228D01*
X208699000Y-90253816D01*
X208699000Y-90086184D01*
X208731703Y-89921772D01*
X208795853Y-89766900D01*
X208888985Y-89627519D01*
X209007519Y-89508985D01*
X209146900Y-89415853D01*
X209301772Y-89351703D01*
X209466184Y-89319000D01*
X209633816Y-89319000D01*
X209798228Y-89351703D01*
G37*
G36*
X227169487Y-85108996D02*
G01*
X227406253Y-85207068D01*
X227406255Y-85207069D01*
X227619339Y-85349447D01*
X227800553Y-85530661D01*
X227942932Y-85743747D01*
X228041004Y-85980513D01*
X228091000Y-86231861D01*
X228091000Y-86488139D01*
X228041004Y-86739487D01*
X228031224Y-86763097D01*
X227942931Y-86976255D01*
X227800553Y-87189339D01*
X227619339Y-87370553D01*
X227406255Y-87512931D01*
X227406254Y-87512932D01*
X227406253Y-87512932D01*
X227169487Y-87611004D01*
X226918139Y-87661000D01*
X226661861Y-87661000D01*
X226410513Y-87611004D01*
X226173747Y-87512932D01*
X226173746Y-87512932D01*
X226173745Y-87512931D01*
X225960661Y-87370553D01*
X225779447Y-87189339D01*
X225637069Y-86976255D01*
X225548776Y-86763097D01*
X225538996Y-86739487D01*
X225489000Y-86488139D01*
X225489000Y-86231861D01*
X225538996Y-85980513D01*
X225637068Y-85743747D01*
X225779447Y-85530661D01*
X225960661Y-85349447D01*
X226173745Y-85207069D01*
X226173747Y-85207068D01*
X226410513Y-85108996D01*
X226661861Y-85059000D01*
X226918139Y-85059000D01*
X227169487Y-85108996D01*
G37*
G36*
X221951000Y-87311000D02*
G01*
X220049000Y-87311000D01*
X220049000Y-85409000D01*
X221951000Y-85409000D01*
X221951000Y-87311000D01*
G37*
G36*
X205988228Y-85541703D02*
G01*
X206143100Y-85605853D01*
X206282481Y-85698985D01*
X206401015Y-85817519D01*
X206494147Y-85956900D01*
X206558297Y-86111772D01*
X206591000Y-86276184D01*
X206591000Y-86443816D01*
X206558297Y-86608228D01*
X206494147Y-86763100D01*
X206401015Y-86902481D01*
X206282481Y-87021015D01*
X206143100Y-87114147D01*
X205988228Y-87178297D01*
X205823816Y-87211000D01*
X205656184Y-87211000D01*
X205491772Y-87178297D01*
X205336900Y-87114147D01*
X205197519Y-87021015D01*
X205078985Y-86902481D01*
X204985853Y-86763100D01*
X204921703Y-86608228D01*
X204889000Y-86443816D01*
X204889000Y-86276184D01*
X204921703Y-86111772D01*
X204985853Y-85956900D01*
X205078985Y-85817519D01*
X205197519Y-85698985D01*
X205336900Y-85605853D01*
X205491772Y-85541703D01*
X205656184Y-85509000D01*
X205823816Y-85509000D01*
X205988228Y-85541703D01*
G37*
G36*
X213608228Y-85541703D02*
G01*
X213763100Y-85605853D01*
X213902481Y-85698985D01*
X214021015Y-85817519D01*
X214114147Y-85956900D01*
X214178297Y-86111772D01*
X214211000Y-86276184D01*
X214211000Y-86443816D01*
X214178297Y-86608228D01*
X214114147Y-86763100D01*
X214021015Y-86902481D01*
X213902481Y-87021015D01*
X213763100Y-87114147D01*
X213608228Y-87178297D01*
X213443816Y-87211000D01*
X213276184Y-87211000D01*
X213111772Y-87178297D01*
X212956900Y-87114147D01*
X212817519Y-87021015D01*
X212698985Y-86902481D01*
X212605853Y-86763100D01*
X212541703Y-86608228D01*
X212509000Y-86443816D01*
X212509000Y-86276184D01*
X212541703Y-86111772D01*
X212605853Y-85956900D01*
X212698985Y-85817519D01*
X212817519Y-85698985D01*
X212956900Y-85605853D01*
X213111772Y-85541703D01*
X213276184Y-85509000D01*
X213443816Y-85509000D01*
X213608228Y-85541703D01*
G37*
G36*
X221277395Y-82905546D02*
G01*
X221450466Y-82977234D01*
X221450467Y-82977235D01*
X221606227Y-83081310D01*
X221738690Y-83213773D01*
X221738691Y-83213775D01*
X221842766Y-83369534D01*
X221914454Y-83542605D01*
X221951000Y-83726333D01*
X221951000Y-83913667D01*
X221914454Y-84097395D01*
X221842766Y-84270466D01*
X221842765Y-84270467D01*
X221738690Y-84426227D01*
X221606227Y-84558690D01*
X221527818Y-84611081D01*
X221450466Y-84662766D01*
X221277395Y-84734454D01*
X221093667Y-84771000D01*
X220906333Y-84771000D01*
X220722605Y-84734454D01*
X220549534Y-84662766D01*
X220472182Y-84611081D01*
X220393773Y-84558690D01*
X220261310Y-84426227D01*
X220157235Y-84270467D01*
X220157234Y-84270466D01*
X220085546Y-84097395D01*
X220049000Y-83913667D01*
X220049000Y-83726333D01*
X220085546Y-83542605D01*
X220157234Y-83369534D01*
X220261309Y-83213775D01*
X220261310Y-83213773D01*
X220393773Y-83081310D01*
X220549533Y-82977235D01*
X220549534Y-82977234D01*
X220722605Y-82905546D01*
X220906333Y-82869000D01*
X221093667Y-82869000D01*
X221277395Y-82905546D01*
G37*
G36*
X210965936Y-80281340D02*
G01*
X211064220Y-80291020D01*
X211253381Y-80348401D01*
X211427712Y-80441583D01*
X211580515Y-80566985D01*
X211705917Y-80719788D01*
X211799099Y-80894119D01*
X211856480Y-81083280D01*
X211875855Y-81280000D01*
X211856480Y-81476720D01*
X211799099Y-81665881D01*
X211705917Y-81840212D01*
X211580515Y-81993015D01*
X211427712Y-82118417D01*
X211253381Y-82211599D01*
X211064220Y-82268980D01*
X210965936Y-82278660D01*
X210916795Y-82283500D01*
X210723205Y-82283500D01*
X210674064Y-82278660D01*
X210575780Y-82268980D01*
X210386619Y-82211599D01*
X210212288Y-82118417D01*
X210059485Y-81993015D01*
X209934083Y-81840212D01*
X209840901Y-81665881D01*
X209783520Y-81476720D01*
X209764145Y-81280000D01*
X209783520Y-81083280D01*
X209840901Y-80894119D01*
X209934083Y-80719788D01*
X210059485Y-80566985D01*
X210212288Y-80441583D01*
X210386619Y-80348401D01*
X210575780Y-80291020D01*
X210674064Y-80281340D01*
X210723205Y-80276500D01*
X210916795Y-80276500D01*
X210965936Y-80281340D01*
G37*
G36*
X205988228Y-80461703D02*
G01*
X206143100Y-80525853D01*
X206282481Y-80618985D01*
X206401015Y-80737519D01*
X206494147Y-80876900D01*
X206558297Y-81031772D01*
X206591000Y-81196184D01*
X206591000Y-81363816D01*
X206558297Y-81528228D01*
X206494147Y-81683100D01*
X206401015Y-81822481D01*
X206282481Y-81941015D01*
X206143100Y-82034147D01*
X205988228Y-82098297D01*
X205823816Y-82131000D01*
X205656184Y-82131000D01*
X205491772Y-82098297D01*
X205336900Y-82034147D01*
X205197519Y-81941015D01*
X205078985Y-81822481D01*
X204985853Y-81683100D01*
X204921703Y-81528228D01*
X204889000Y-81363816D01*
X204889000Y-81196184D01*
X204921703Y-81031772D01*
X204985853Y-80876900D01*
X205078985Y-80737519D01*
X205197519Y-80618985D01*
X205336900Y-80525853D01*
X205491772Y-80461703D01*
X205656184Y-80429000D01*
X205823816Y-80429000D01*
X205988228Y-80461703D01*
G37*
G36*
X226821000Y-79781000D02*
G01*
X222759000Y-79781000D01*
X222759000Y-77699000D01*
X226821000Y-77699000D01*
X226821000Y-79781000D01*
G37*
G36*
X210965936Y-77741340D02*
G01*
X211064220Y-77751020D01*
X211253381Y-77808401D01*
X211427712Y-77901583D01*
X211580515Y-78026985D01*
X211705917Y-78179788D01*
X211799099Y-78354119D01*
X211856480Y-78543280D01*
X211875855Y-78740000D01*
X211856480Y-78936720D01*
X211799099Y-79125881D01*
X211705917Y-79300212D01*
X211580515Y-79453015D01*
X211427712Y-79578417D01*
X211253381Y-79671599D01*
X211064220Y-79728980D01*
X210965936Y-79738660D01*
X210916795Y-79743500D01*
X210723205Y-79743500D01*
X210674064Y-79738660D01*
X210575780Y-79728980D01*
X210386619Y-79671599D01*
X210212288Y-79578417D01*
X210059485Y-79453015D01*
X209934083Y-79300212D01*
X209840901Y-79125881D01*
X209783520Y-78936720D01*
X209764145Y-78740000D01*
X209783520Y-78543280D01*
X209840901Y-78354119D01*
X209934083Y-78179788D01*
X210059485Y-78026985D01*
X210212288Y-77901583D01*
X210386619Y-77808401D01*
X210575780Y-77751020D01*
X210674064Y-77741340D01*
X210723205Y-77736500D01*
X210916795Y-77736500D01*
X210965936Y-77741340D01*
G37*
G36*
X211871000Y-77203500D02*
G01*
X209769000Y-77203500D01*
X209769000Y-75196500D01*
X211871000Y-75196500D01*
X211871000Y-77203500D01*
G37*
G36*
X205988228Y-75461703D02*
G01*
X206143100Y-75525853D01*
X206282481Y-75618985D01*
X206401015Y-75737519D01*
X206494147Y-75876900D01*
X206558297Y-76031772D01*
X206591000Y-76196184D01*
X206591000Y-76363816D01*
X206558297Y-76528228D01*
X206494147Y-76683100D01*
X206401015Y-76822481D01*
X206282481Y-76941015D01*
X206143100Y-77034147D01*
X205988228Y-77098297D01*
X205823816Y-77131000D01*
X205656184Y-77131000D01*
X205491772Y-77098297D01*
X205336900Y-77034147D01*
X205197519Y-76941015D01*
X205078985Y-76822481D01*
X204985853Y-76683100D01*
X204921703Y-76528228D01*
X204889000Y-76363816D01*
X204889000Y-76196184D01*
X204921703Y-76031772D01*
X204985853Y-75876900D01*
X205078985Y-75737519D01*
X205197519Y-75618985D01*
X205336900Y-75525853D01*
X205491772Y-75461703D01*
X205656184Y-75429000D01*
X205823816Y-75429000D01*
X205988228Y-75461703D01*
G37*
G36*
X225882112Y-72704021D02*
G01*
X225984072Y-72714063D01*
X226180301Y-72773589D01*
X226180303Y-72773590D01*
X226361145Y-72870252D01*
X226519660Y-73000340D01*
X226649747Y-73158854D01*
X226746411Y-73339699D01*
X226805937Y-73535928D01*
X226826036Y-73740000D01*
X226805937Y-73944072D01*
X226746411Y-74140301D01*
X226746410Y-74140303D01*
X226649748Y-74321145D01*
X226519660Y-74479660D01*
X226361145Y-74609748D01*
X226180303Y-74706410D01*
X226180301Y-74706411D01*
X225984072Y-74765937D01*
X225882112Y-74775979D01*
X225831133Y-74781000D01*
X223748867Y-74781000D01*
X223697888Y-74775979D01*
X223595928Y-74765937D01*
X223399699Y-74706411D01*
X223399697Y-74706410D01*
X223218855Y-74609748D01*
X223060340Y-74479660D01*
X222930252Y-74321145D01*
X222833590Y-74140303D01*
X222833589Y-74140301D01*
X222774063Y-73944072D01*
X222753964Y-73740000D01*
X222774063Y-73535928D01*
X222833589Y-73339699D01*
X222930253Y-73158854D01*
X223060340Y-73000340D01*
X223218855Y-72870252D01*
X223399697Y-72773590D01*
X223399699Y-72773589D01*
X223595928Y-72714063D01*
X223697888Y-72704021D01*
X223748867Y-72699000D01*
X225831133Y-72699000D01*
X225882112Y-72704021D01*
G37*
G36*
X211068228Y-70301703D02*
G01*
X211223100Y-70365853D01*
X211362481Y-70458985D01*
X211481015Y-70577519D01*
X211574147Y-70716900D01*
X211638297Y-70871772D01*
X211671000Y-71036184D01*
X211671000Y-71203816D01*
X211638297Y-71368228D01*
X211574147Y-71523100D01*
X211481015Y-71662481D01*
X211362481Y-71781015D01*
X211223100Y-71874147D01*
X211068228Y-71938297D01*
X210903816Y-71971000D01*
X210736184Y-71971000D01*
X210571772Y-71938297D01*
X210416900Y-71874147D01*
X210277519Y-71781015D01*
X210158985Y-71662481D01*
X210065853Y-71523100D01*
X210001703Y-71368228D01*
X209969000Y-71203816D01*
X209969000Y-71036184D01*
X210001703Y-70871772D01*
X210065853Y-70716900D01*
X210158985Y-70577519D01*
X210277519Y-70458985D01*
X210416900Y-70365853D01*
X210571772Y-70301703D01*
X210736184Y-70269000D01*
X210903816Y-70269000D01*
X211068228Y-70301703D01*
G37*
G36*
X206068228Y-70301703D02*
G01*
X206223100Y-70365853D01*
X206362481Y-70458985D01*
X206481015Y-70577519D01*
X206574147Y-70716900D01*
X206638297Y-70871772D01*
X206671000Y-71036184D01*
X206671000Y-71203816D01*
X206638297Y-71368228D01*
X206574147Y-71523100D01*
X206481015Y-71662481D01*
X206362481Y-71781015D01*
X206223100Y-71874147D01*
X206068228Y-71938297D01*
X205903816Y-71971000D01*
X205736184Y-71971000D01*
X205571772Y-71938297D01*
X205416900Y-71874147D01*
X205277519Y-71781015D01*
X205158985Y-71662481D01*
X205065853Y-71523100D01*
X205001703Y-71368228D01*
X204969000Y-71203816D01*
X204969000Y-71036184D01*
X205001703Y-70871772D01*
X205065853Y-70716900D01*
X205158985Y-70577519D01*
X205277519Y-70458985D01*
X205416900Y-70365853D01*
X205571772Y-70301703D01*
X205736184Y-70269000D01*
X205903816Y-70269000D01*
X206068228Y-70301703D01*
G37*
G36*
X226821000Y-68351000D02*
G01*
X222759000Y-68351000D01*
X222759000Y-66269000D01*
X226821000Y-66269000D01*
X226821000Y-68351000D01*
G37*
G36*
X207258228Y-65221703D02*
G01*
X207413100Y-65285853D01*
X207552481Y-65378985D01*
X207671015Y-65497519D01*
X207764147Y-65636900D01*
X207828297Y-65791772D01*
X207861000Y-65956184D01*
X207861000Y-66123816D01*
X207828297Y-66288228D01*
X207764147Y-66443100D01*
X207671015Y-66582481D01*
X207552481Y-66701015D01*
X207413100Y-66794147D01*
X207258228Y-66858297D01*
X207093816Y-66891000D01*
X206926184Y-66891000D01*
X206761772Y-66858297D01*
X206606900Y-66794147D01*
X206467519Y-66701015D01*
X206348985Y-66582481D01*
X206255853Y-66443100D01*
X206191703Y-66288228D01*
X206159000Y-66123816D01*
X206159000Y-65956184D01*
X206191703Y-65791772D01*
X206255853Y-65636900D01*
X206348985Y-65497519D01*
X206467519Y-65378985D01*
X206606900Y-65285853D01*
X206761772Y-65221703D01*
X206926184Y-65189000D01*
X207093816Y-65189000D01*
X207258228Y-65221703D01*
G37*
G36*
X213141000Y-65773500D02*
G01*
X211039000Y-65773500D01*
X211039000Y-63766500D01*
X213141000Y-63766500D01*
X213141000Y-65773500D01*
G37*
G36*
X225882112Y-61274021D02*
G01*
X225984072Y-61284063D01*
X226180301Y-61343589D01*
X226180303Y-61343590D01*
X226361145Y-61440252D01*
X226519660Y-61570340D01*
X226601274Y-61669789D01*
X226649747Y-61728854D01*
X226746411Y-61909699D01*
X226805937Y-62105928D01*
X226826036Y-62310000D01*
X226805937Y-62514072D01*
X226746411Y-62710301D01*
X226746410Y-62710303D01*
X226649748Y-62891145D01*
X226519660Y-63049660D01*
X226361145Y-63179748D01*
X226260582Y-63233500D01*
X226180301Y-63276411D01*
X225984072Y-63335937D01*
X225882112Y-63345979D01*
X225831133Y-63351000D01*
X223748867Y-63351000D01*
X223697888Y-63345979D01*
X223595928Y-63335937D01*
X223399699Y-63276411D01*
X223319418Y-63233500D01*
X223218855Y-63179748D01*
X223060340Y-63049660D01*
X222930252Y-62891145D01*
X222833590Y-62710303D01*
X222833589Y-62710301D01*
X222774063Y-62514072D01*
X222753964Y-62310000D01*
X222774063Y-62105928D01*
X222833589Y-61909699D01*
X222930253Y-61728854D01*
X222978726Y-61669789D01*
X223060340Y-61570340D01*
X223218855Y-61440252D01*
X223399697Y-61343590D01*
X223399699Y-61343589D01*
X223595928Y-61284063D01*
X223697888Y-61274021D01*
X223748867Y-61269000D01*
X225831133Y-61269000D01*
X225882112Y-61274021D01*
G37*
G36*
X212235936Y-61231340D02*
G01*
X212334220Y-61241020D01*
X212523381Y-61298401D01*
X212697712Y-61391583D01*
X212850515Y-61516985D01*
X212975917Y-61669788D01*
X213069099Y-61844119D01*
X213126480Y-62033280D01*
X213145855Y-62230000D01*
X213126480Y-62426720D01*
X213069099Y-62615881D01*
X212975917Y-62790212D01*
X212850515Y-62943015D01*
X212697712Y-63068417D01*
X212523381Y-63161599D01*
X212334220Y-63218980D01*
X212235936Y-63228660D01*
X212186795Y-63233500D01*
X211993205Y-63233500D01*
X211944064Y-63228660D01*
X211845780Y-63218980D01*
X211656619Y-63161599D01*
X211482288Y-63068417D01*
X211329485Y-62943015D01*
X211204083Y-62790212D01*
X211110901Y-62615881D01*
X211053520Y-62426720D01*
X211034145Y-62230000D01*
X211053520Y-62033280D01*
X211110901Y-61844119D01*
X211204083Y-61669788D01*
X211329485Y-61516985D01*
X211482288Y-61391583D01*
X211656619Y-61298401D01*
X211845780Y-61241020D01*
X211944064Y-61231340D01*
X211993205Y-61226500D01*
X212186795Y-61226500D01*
X212235936Y-61231340D01*
G37*
G36*
X212235936Y-58691340D02*
G01*
X212334220Y-58701020D01*
X212523381Y-58758401D01*
X212697712Y-58851583D01*
X212850515Y-58976985D01*
X212975917Y-59129788D01*
X213069099Y-59304119D01*
X213126480Y-59493280D01*
X213145855Y-59690000D01*
X213126480Y-59886720D01*
X213069099Y-60075881D01*
X212975917Y-60250212D01*
X212850515Y-60403015D01*
X212697712Y-60528417D01*
X212523381Y-60621599D01*
X212334220Y-60678980D01*
X212235936Y-60688660D01*
X212186795Y-60693500D01*
X211993205Y-60693500D01*
X211944064Y-60688660D01*
X211845780Y-60678980D01*
X211656619Y-60621599D01*
X211482288Y-60528417D01*
X211329485Y-60403015D01*
X211204083Y-60250212D01*
X211110901Y-60075881D01*
X211053520Y-59886720D01*
X211034145Y-59690000D01*
X211053520Y-59493280D01*
X211110901Y-59304119D01*
X211204083Y-59129788D01*
X211329485Y-58976985D01*
X211482288Y-58851583D01*
X211656619Y-58758401D01*
X211845780Y-58701020D01*
X211944064Y-58691340D01*
X211993205Y-58686500D01*
X212186795Y-58686500D01*
X212235936Y-58691340D01*
G37*
G36*
X207258228Y-57601703D02*
G01*
X207413100Y-57665853D01*
X207552481Y-57758985D01*
X207671015Y-57877519D01*
X207764147Y-58016900D01*
X207828297Y-58171772D01*
X207861000Y-58336184D01*
X207861000Y-58503816D01*
X207828297Y-58668228D01*
X207764147Y-58823100D01*
X207671015Y-58962481D01*
X207552481Y-59081015D01*
X207413100Y-59174147D01*
X207258228Y-59238297D01*
X207093816Y-59271000D01*
X206926184Y-59271000D01*
X206761772Y-59238297D01*
X206606900Y-59174147D01*
X206467519Y-59081015D01*
X206348985Y-58962481D01*
X206255853Y-58823100D01*
X206191703Y-58668228D01*
X206159000Y-58503816D01*
X206159000Y-58336184D01*
X206191703Y-58171772D01*
X206255853Y-58016900D01*
X206348985Y-57877519D01*
X206467519Y-57758985D01*
X206606900Y-57665853D01*
X206761772Y-57601703D01*
X206926184Y-57569000D01*
X207093816Y-57569000D01*
X207258228Y-57601703D01*
G37*
M02*
